<svg width="850" height="605" viewBox="0 0 850 605" fill="none" xmlns="http://www.w3.org/2000/svg">
<g clip-path="url(#clip0_243_3)">
<path d="M845.318 562.216C845.224 562.464 845.037 562.665 844.796 562.776C844.555 562.886 844.28 562.896 844.032 562.805L49.2709 267.069C49.0229 266.976 48.8219 266.789 48.7119 266.548C48.602 266.307 48.5921 266.032 48.6845 265.784C48.7768 265.536 48.9639 265.334 49.2046 265.224C49.4453 265.113 49.72 265.103 49.9684 265.195L844.729 560.93C844.977 561.023 845.178 561.211 845.289 561.452C845.399 561.693 845.409 561.967 845.318 562.216Z" fill="#F2F2F2"/>
<path d="M421.955 0H232.575C217.719 0.0168095 203.477 5.9257 192.972 16.4303C182.467 26.935 176.559 41.1775 176.542 56.0333V73.151C176.153 73.044 175.745 73.0289 175.349 73.1067C174.954 73.1846 174.582 73.3533 174.262 73.5996C173.943 73.8459 173.686 74.163 173.51 74.5259C173.335 74.8888 173.246 75.2876 173.251 75.6907V88.8543C173.246 89.2574 173.335 89.6561 173.51 90.019C173.686 90.3819 173.943 90.699 174.262 90.9453C174.582 91.1916 174.954 91.3604 175.349 91.4382C175.745 91.5161 176.153 91.5009 176.542 91.3939V111.325C176.153 111.218 175.745 111.203 175.349 111.281C174.954 111.359 174.582 111.528 174.262 111.774C173.943 112.02 173.686 112.337 173.51 112.7C173.335 113.063 173.246 113.462 173.251 113.865V146.774C173.246 147.177 173.335 147.576 173.51 147.939C173.686 148.302 173.943 148.619 174.262 148.865C174.582 149.112 174.954 149.28 175.349 149.358C175.745 149.436 176.153 149.421 176.542 149.314V161.347C176.153 161.24 175.745 161.225 175.349 161.303C174.954 161.381 174.582 161.549 174.262 161.796C173.943 162.042 173.686 162.359 173.51 162.722C173.335 163.085 173.246 163.484 173.251 163.887V196.796C173.246 197.199 173.335 197.598 173.51 197.961C173.686 198.323 173.943 198.641 174.262 198.887C174.582 199.133 174.954 199.302 175.349 199.38C175.745 199.458 176.153 199.442 176.542 199.335V546.859C176.559 561.715 182.467 575.957 192.972 586.462C203.477 596.967 217.719 602.875 232.575 602.892H421.955C436.81 602.875 451.053 596.967 461.558 586.462C472.062 575.957 477.971 561.715 477.988 546.859V56.0333C477.971 41.1775 472.062 26.935 461.558 16.4303C451.053 5.9257 436.81 0.0168095 421.955 0ZM466.141 546.859C466.127 558.574 461.468 569.805 453.184 578.089C444.901 586.372 433.669 591.032 421.955 591.045H232.575C220.86 591.032 209.629 586.372 201.345 578.089C193.062 569.805 188.402 558.574 188.389 546.859V56.0333C188.402 44.3185 193.062 33.0873 201.345 24.8037C209.629 16.5201 220.86 11.8605 232.575 11.8472H421.955C433.669 11.8605 444.901 16.5201 453.184 24.8037C461.468 33.0873 466.127 44.3185 466.141 56.0333V546.859Z" fill="#3F3D56"/>
<path d="M421.955 597.627H232.575C219.115 597.612 206.211 592.258 196.694 582.741C187.176 573.223 181.822 560.319 181.807 546.859V56.0335C181.822 42.5737 187.176 29.6696 196.694 20.1521C206.211 10.6346 219.115 5.2809 232.575 5.26562H421.955C435.414 5.2809 448.318 10.6345 457.836 20.1521C467.353 29.6696 472.707 42.5737 472.722 56.0335V546.859C472.707 560.319 467.353 573.223 457.836 582.741C448.318 592.258 435.414 597.612 421.955 597.627Z" fill="#E6E6E6"/>
<path d="M426.634 589.729H227.895C218.817 589.719 210.114 586.108 203.695 579.689C197.276 573.27 193.665 564.567 193.654 555.488V47.4048C193.665 38.3268 197.276 29.6235 203.695 23.2043C210.114 16.7852 218.817 13.1744 227.895 13.1641H253.813C255.313 13.1658 256.752 13.7626 257.813 14.8236C258.874 15.8846 259.471 17.3231 259.472 18.8235C259.477 23.2561 261.24 27.5057 264.375 30.64C267.509 33.7742 271.758 35.5372 276.191 35.5422H375.706C380.138 35.5373 384.388 33.7742 387.522 30.64C390.657 27.5057 392.42 23.2561 392.425 18.8235C392.426 17.3231 393.023 15.8846 394.084 14.8236C395.145 13.7626 396.583 13.1658 398.084 13.1641H426.634C435.712 13.1744 444.416 16.7851 450.835 23.2043C457.254 29.6235 460.865 38.3267 460.875 47.4048V555.488C460.865 564.567 457.254 573.27 450.835 579.689C444.416 586.108 435.713 589.719 426.634 589.729Z" fill="white"/>
<path d="M335.821 24.6815H312.127C311.428 24.6815 310.759 24.4041 310.265 23.9104C309.771 23.4166 309.494 22.747 309.494 22.0487C309.494 21.3505 309.771 20.6808 310.265 20.1871C310.759 19.6934 311.428 19.416 312.127 19.416H335.821C336.519 19.416 337.189 19.6934 337.683 20.1871C338.176 20.6808 338.454 21.3505 338.454 22.0487C338.454 22.747 338.176 23.4166 337.683 23.9104C337.189 24.4041 336.519 24.6815 335.821 24.6815Z" fill="white"/>
<path d="M352.276 24.0233C353.003 24.0233 353.592 23.434 353.592 22.707C353.592 21.98 353.003 21.3906 352.276 21.3906C351.549 21.3906 350.959 21.98 350.959 22.707C350.959 23.434 351.549 24.0233 352.276 24.0233Z" fill="white"/>
<path d="M467.278 116H186.99V119H467.278V116Z" fill="#E6E6E6"/>
<path d="M467.278 176H186.99V179H467.278V176Z" fill="#E6E6E6"/>
<path d="M467.278 300H186.99V303H467.278V300Z" fill="#E6E6E6"/>
<path d="M467.278 424H186.99V427H467.278V424Z" fill="#E6E6E6"/>
<path d="M467.278 521H186.99V524H467.278V521Z" fill="#E6E6E6"/>
<path d="M390.542 117.5H387.542V301.5H390.542V117.5Z" fill="#E6E6E6"/>
<path d="M250.227 301.445H247.227V522.499H250.227V301.445Z" fill="#E6E6E6"/>
<path d="M460.875 362.082H248.727V365.082H460.875V362.082Z" fill="#E6E6E6"/>
<path d="M390.864 522.5H387.864V589.729H390.864V522.5Z" fill="#E6E6E6"/>
<path d="M388.542 239.229H193.154V242.229H388.542V239.229Z" fill="#E6E6E6"/>
<path d="M233.959 11.2676L231.191 12.4258L275.406 118.079L278.173 116.92L233.959 11.2676Z" fill="#E6E6E6"/>
<path d="M370.132 35.541H367.132V117.5H370.132V35.541Z" fill="#E6E6E6"/>
<path d="M447.49 163C447.49 189.88 405.931 252.516 393.786 270.247C393.419 270.783 392.928 271.221 392.353 271.524C391.779 271.827 391.14 271.986 390.49 271.986C389.841 271.986 389.201 271.827 388.627 271.524C388.053 271.221 387.561 270.783 387.195 270.247C375.05 252.516 333.49 189.88 333.49 163C333.49 147.883 339.496 133.384 350.185 122.695C360.875 112.005 375.373 106 390.49 106C405.608 106 420.106 112.005 430.795 122.695C441.485 133.384 447.49 147.883 447.49 163Z" fill="#003A91"/>
<path d="M390.49 188C406.506 188 419.49 175.016 419.49 159C419.49 142.984 406.506 130 390.49 130C374.474 130 361.49 142.984 361.49 159C361.49 175.016 374.474 188 390.49 188Z" fill="white"/>
<path d="M388.591 302.361L278.765 521.794L281.447 523.137L391.273 303.704L388.591 302.361Z" fill="#E6E6E6"/>
<path d="M546.759 350.629C548.054 351.325 549.485 351.729 550.953 351.812C552.421 351.895 553.889 351.655 555.254 351.109C556.619 350.563 557.848 349.725 558.854 348.653C559.859 347.58 560.618 346.301 561.076 344.904L596.805 344.286L586.316 328.963L553.995 331.899C551.597 331.285 549.057 331.572 546.857 332.706C544.657 333.84 542.949 335.741 542.057 338.05C541.165 340.359 541.151 342.915 542.018 345.233C542.884 347.551 544.571 349.471 546.759 350.629Z" fill="#FFB8B8"/>
<path d="M568.208 350.184C567.654 350.184 567.106 350.071 566.597 349.854C566.088 349.636 565.628 349.318 565.245 348.918C564.862 348.518 564.564 348.044 564.369 347.526C564.174 347.008 564.086 346.456 564.11 345.902L564.832 329.519C564.871 328.543 565.259 327.614 565.925 326.9C566.591 326.185 567.491 325.733 568.461 325.626L609.852 320.879L608.465 348.181L568.41 350.178C568.343 350.182 568.275 350.184 568.208 350.184Z" fill="#E88B00"/>
<path d="M618.618 574.756L606.964 578.562L586.737 535.422L603.937 529.805L618.618 574.756Z" fill="#FFB8B8"/>
<path d="M625.28 585.08L587.703 597.353L587.548 596.878C586.92 594.957 586.677 592.932 586.833 590.917C586.988 588.902 587.539 586.937 588.453 585.135C589.368 583.334 590.628 581.731 592.163 580.416C593.697 579.101 595.476 578.101 597.396 577.474L597.397 577.474L620.348 569.979L625.28 585.08Z" fill="#2F2E41"/>
<path d="M652.944 592.797L640.684 592.796L634.852 545.508L652.946 545.509L652.944 592.797Z" fill="#FFB8B8"/>
<path d="M656.071 604.681L616.54 604.679V604.179C616.54 602.159 616.938 600.158 617.711 598.291C618.484 596.424 619.618 594.728 621.047 593.299C622.475 591.871 624.172 590.737 626.038 589.964C627.905 589.191 629.906 588.793 631.926 588.793H631.927L656.071 588.794V604.681Z" fill="#2F2E41"/>
<path d="M634.323 581.286C633.321 581.285 632.354 580.917 631.604 580.251C630.855 579.586 630.375 578.669 630.255 577.674L614.448 445.528L591.311 482.671L618.459 552.048C618.828 553.007 618.826 554.069 618.453 555.027C618.08 555.985 617.364 556.769 616.443 557.226L593.413 568.495C592.888 568.752 592.313 568.894 591.728 568.911C591.143 568.927 590.561 568.819 590.022 568.592C589.483 568.365 588.998 568.025 588.601 567.596C588.203 567.166 587.903 566.656 587.719 566.101L562.197 488.992C560.274 483.189 560.023 476.962 561.472 471.023L577.975 403.302L578.168 403.196L615.367 382.82L615.58 382.898L659.388 398.888L654.803 485.705L658.134 575.813C658.18 576.884 657.802 577.93 657.082 578.724C656.363 579.518 655.36 579.997 654.29 580.058L634.58 581.278C634.494 581.283 634.408 581.286 634.323 581.286Z" fill="#2F2E41"/>
<path d="M610.192 429.037C603.647 429.037 598.133 427.172 594.682 422.433L594.571 422.281L596.804 398.855L576.949 409.876C576.537 410.105 576.065 410.202 575.597 410.153C575.128 410.105 574.686 409.914 574.33 409.606C573.973 409.299 573.72 408.889 573.604 408.433C573.487 407.977 573.514 407.496 573.68 407.055L598.442 341.296L614.791 287.729C615.602 283.442 617.696 279.502 620.796 276.431C623.895 273.36 627.855 271.303 632.15 270.533C646.714 267.857 655.389 272.772 665.406 283.678C667.829 286.331 669.613 289.503 670.623 292.951C671.632 296.4 671.841 300.033 671.232 303.574L661.756 357.735L664.54 406.295C664.753 407.132 664.696 408.015 664.377 408.818C664.058 409.621 663.493 410.302 662.763 410.764C655.018 415.694 631.27 429.035 610.192 429.037Z" fill="#E88B00"/>
<path d="M643.328 262.421C656.893 262.421 667.889 251.425 667.889 237.86C667.889 224.295 656.893 213.299 643.328 213.299C629.763 213.299 618.767 224.295 618.767 237.86C618.767 251.425 629.763 262.421 643.328 262.421Z" fill="#FFB8B8"/>
<path d="M649.725 412.937C651.062 412.324 652.248 411.426 653.199 410.305C654.151 409.185 654.845 407.869 655.233 406.451C655.622 405.033 655.694 403.548 655.446 402.099C655.198 400.65 654.635 399.273 653.797 398.065L674.862 369.198L656.313 368.318L639.154 395.865C637.218 397.407 635.915 399.606 635.491 402.045C635.068 404.483 635.554 406.992 636.857 409.097C638.16 411.201 640.19 412.754 642.562 413.462C644.933 414.17 647.482 413.983 649.725 412.937Z" fill="#FFB8B8"/>
<path d="M661.133 396.648C660.106 396.794 659.06 396.546 658.208 395.952L644.263 386.228C643.425 385.648 642.834 384.775 642.607 383.781C642.379 382.787 642.532 381.744 643.035 380.857L667.861 336.686L642.891 306.63C641.58 305.052 640.612 303.218 640.048 301.245C639.485 299.272 639.338 297.203 639.617 295.17C639.897 293.137 640.596 291.185 641.671 289.437C642.747 287.69 644.174 286.185 645.862 285.019C647.551 283.853 649.464 283.051 651.479 282.665C653.494 282.278 655.568 282.316 657.568 282.775C659.568 283.233 661.45 284.103 663.096 285.329C664.741 286.555 666.113 288.111 667.125 289.896L694.695 338.557C694.89 338.904 694.993 339.295 694.992 339.692C694.992 340.09 694.889 340.481 694.694 340.827L664.118 394.615C663.836 395.111 663.453 395.542 662.995 395.882C662.537 396.221 662.014 396.462 661.457 396.588C661.35 396.613 661.242 396.633 661.133 396.648Z" fill="#E88B00"/>
<path d="M633.512 234.725C631.081 232.91 627.716 233.193 624.836 232.242C623.121 231.676 621.585 230.669 620.382 229.322C619.179 227.974 618.352 226.335 617.983 224.567C617.613 222.799 617.715 220.965 618.279 219.249C618.842 217.533 619.846 215.996 621.191 214.79C624.302 212.003 628.728 211.37 632.874 210.86C638.553 210.162 644.288 209.462 649.983 210.017C655.679 210.573 661.412 212.497 665.575 216.423C670.165 220.752 672.425 227.196 672.44 233.506C672.28 239.845 670.54 246.043 667.378 251.539C666.4 253.628 664.927 255.445 663.086 256.833C661.17 258.098 658.47 258.429 656.625 257.063C655.03 255.883 654.447 253.815 653.726 251.967C653.006 250.118 651.776 248.149 649.813 247.864C647.285 247.497 645.355 250.068 642.943 250.909C639.568 252.085 635.82 249.483 634.444 246.185C633.067 242.887 633.43 239.156 633.816 235.603" fill="#2F2E41"/>
<path d="M850 604C849.999 604.265 849.894 604.519 849.706 604.706C849.519 604.894 849.265 604.999 849 605H1C0.734784 605 0.480429 604.895 0.292892 604.707C0.105356 604.52 0 604.265 0 604C0 603.735 0.105356 603.48 0.292892 603.293C0.480429 603.105 0.734784 603 1 603H849C849.265 603.001 849.519 603.106 849.706 603.294C849.894 603.481 849.999 603.735 850 604Z" fill="#CCCCCC"/>
<path d="M390.49 314C397.67 314 403.49 308.18 403.49 301C403.49 293.82 397.67 288 390.49 288C383.311 288 377.49 293.82 377.49 301C377.49 308.18 383.311 314 390.49 314Z" fill="#003A91"/>
<path d="M573.51 158.862C568.08 166.098 544.242 174.564 537.391 176.884C537.184 176.954 536.963 176.973 536.748 176.938C536.532 176.904 536.328 176.817 536.153 176.686C535.978 176.555 535.838 176.383 535.745 176.186C535.651 175.988 535.608 175.771 535.617 175.553C535.929 168.327 537.393 143.072 542.822 135.836C545.876 131.766 550.421 129.077 555.457 128.358C560.494 127.64 565.61 128.952 569.679 132.005C573.748 135.059 576.438 139.603 577.157 144.64C577.875 149.677 576.563 154.792 573.51 158.862Z" fill="#F2F2F2"/>
<path d="M558.974 156.031C564.364 156.031 568.734 151.661 568.734 146.271C568.734 140.881 564.364 136.512 558.974 136.512C553.584 136.512 549.214 140.881 549.214 146.271C549.214 151.661 553.584 156.031 558.974 156.031Z" fill="white"/>
<path d="M530.293 188.871C532.709 188.871 534.668 186.912 534.668 184.496C534.668 182.08 532.709 180.121 530.293 180.121C527.876 180.121 525.918 182.08 525.918 184.496C525.918 186.912 527.876 188.871 530.293 188.871Z" fill="#F2F2F2"/>
<path d="M97.677 357.34C105.666 369.546 105.411 410.34 105.166 422.001C105.159 422.353 105.066 422.699 104.895 423.007C104.724 423.315 104.481 423.577 104.186 423.77C103.891 423.963 103.554 424.081 103.203 424.114C102.852 424.147 102.499 424.094 102.173 423.96C91.3881 419.518 53.9002 403.428 45.911 391.222C43.6831 387.823 42.1469 384.019 41.39 380.026C40.6331 376.033 40.6704 371.93 41.4998 367.951C42.3291 363.973 43.9343 360.197 46.2236 356.839C48.5129 353.481 51.4415 350.607 54.8419 348.381C58.2423 346.156 62.0479 344.622 66.0413 343.868C70.0347 343.113 74.1376 343.153 78.1156 343.985C82.0936 344.817 85.8686 346.425 89.2251 348.716C92.5815 351.008 95.4535 353.938 97.677 357.34Z" fill="#F2F2F2"/>
<path d="M70.6051 388.204C79.2973 388.204 86.3437 381.157 86.3437 372.465C86.3437 363.773 79.2973 356.727 70.6051 356.727C61.913 356.727 54.8666 363.773 54.8666 372.465C54.8666 381.157 61.913 388.204 70.6051 388.204Z" fill="white"/>
<path d="M112.81 444.001C116.706 444.001 119.865 440.842 119.865 436.946C119.865 433.049 116.706 429.891 112.81 429.891C108.913 429.891 105.754 433.049 105.754 436.946C105.754 440.842 108.913 444.001 112.81 444.001Z" fill="#F2F2F2"/>
<path d="M430 325H350C338.954 325 330 333.954 330 345V357C330 368.046 338.954 377 350 377H430C441.046 377 450 368.046 450 357V345C450 333.954 441.046 325 430 325Z" fill="#003A91"/>
<path d="M361.516 343.153H354.252V362.001H349.868V343.153H342.604V339.281H361.516V343.153ZM361.886 355.729V345.233H366.174V354.801C366.174 356.081 366.408 357.052 366.878 357.713C367.347 358.353 368.04 358.673 368.958 358.673C369.512 358.673 370.056 358.566 370.59 358.353C371.144 358.118 371.646 357.777 372.094 357.329C372.563 356.881 372.958 356.316 373.278 355.633V345.233H377.566V357.201C377.566 357.649 377.64 357.969 377.79 358.161C377.96 358.353 378.227 358.47 378.59 358.513V362.001C378.163 362.065 377.8 362.108 377.502 362.129C377.224 362.172 376.968 362.193 376.734 362.193C375.966 362.193 375.336 362.022 374.846 361.681C374.376 361.318 374.099 360.828 374.014 360.209L373.918 358.865C373.171 359.996 372.211 360.86 371.038 361.457C369.864 362.033 368.574 362.321 367.166 362.321C365.438 362.321 364.126 361.766 363.23 360.657C362.334 359.526 361.886 357.884 361.886 355.729ZM391.363 362.321C390.083 362.321 388.942 362.033 387.939 361.457C386.936 360.881 386.147 360.092 385.571 359.089V362.001H381.827V338.641H386.115V348.177C386.712 347.174 387.491 346.385 388.451 345.809C389.432 345.233 390.574 344.945 391.875 344.945C392.963 344.945 393.955 345.18 394.851 345.649C395.747 346.097 396.515 346.726 397.155 347.537C397.816 348.348 398.318 349.276 398.659 350.321C399.022 351.366 399.203 352.486 399.203 353.681C399.203 354.876 399 355.996 398.595 357.041C398.211 358.086 397.667 359.014 396.963 359.825C396.259 360.614 395.427 361.233 394.467 361.681C393.528 362.108 392.494 362.321 391.363 362.321ZM390.179 358.673C390.862 358.673 391.48 358.545 392.035 358.289C392.611 358.012 393.102 357.649 393.507 357.201C393.934 356.753 394.254 356.23 394.467 355.633C394.702 355.014 394.819 354.374 394.819 353.713C394.819 352.796 394.627 351.953 394.243 351.185C393.88 350.396 393.368 349.766 392.707 349.297C392.067 348.828 391.31 348.593 390.435 348.593C389.816 348.593 389.219 348.742 388.643 349.041C388.088 349.318 387.587 349.702 387.139 350.193C386.712 350.684 386.371 351.238 386.115 351.857V355.857C386.243 356.284 386.446 356.668 386.723 357.009C387.022 357.35 387.363 357.649 387.747 357.905C388.131 358.14 388.526 358.332 388.931 358.481C389.358 358.609 389.774 358.673 390.179 358.673ZM400.956 357.041C400.956 355.953 401.255 355.004 401.852 354.193C402.471 353.361 403.324 352.721 404.412 352.273C405.5 351.825 406.748 351.601 408.156 351.601C408.86 351.601 409.575 351.654 410.3 351.761C411.026 351.868 411.655 352.038 412.188 352.273V351.377C412.188 350.31 411.868 349.489 411.228 348.913C410.61 348.337 409.682 348.049 408.444 348.049C407.527 348.049 406.652 348.209 405.82 348.529C404.988 348.849 404.114 349.318 403.196 349.937L401.82 347.121C402.93 346.396 404.06 345.852 405.212 345.489C406.386 345.126 407.612 344.945 408.892 344.945C411.282 344.945 413.138 345.542 414.46 346.737C415.804 347.932 416.476 349.638 416.476 351.857V357.201C416.476 357.649 416.551 357.969 416.7 358.161C416.871 358.353 417.138 358.47 417.5 358.513V362.001C417.116 362.065 416.764 362.118 416.444 362.161C416.146 362.204 415.89 362.225 415.676 362.225C414.823 362.225 414.172 362.033 413.724 361.649C413.298 361.265 413.031 360.796 412.924 360.241L412.828 359.377C412.103 360.316 411.196 361.041 410.108 361.553C409.02 362.065 407.911 362.321 406.78 362.321C405.671 362.321 404.668 362.097 403.772 361.649C402.898 361.18 402.204 360.55 401.692 359.761C401.202 358.95 400.956 358.044 400.956 357.041ZM411.388 357.905C411.623 357.649 411.815 357.393 411.964 357.137C412.114 356.881 412.188 356.646 412.188 356.433V354.737C411.676 354.524 411.122 354.364 410.524 354.257C409.927 354.129 409.362 354.065 408.828 354.065C407.719 354.065 406.802 354.31 406.076 354.801C405.372 355.27 405.02 355.9 405.02 356.689C405.02 357.116 405.138 357.521 405.372 357.905C405.607 358.289 405.948 358.598 406.396 358.833C406.844 359.068 407.378 359.185 407.996 359.185C408.636 359.185 409.266 359.068 409.884 358.833C410.503 358.577 411.004 358.268 411.388 357.905ZM436.067 362.001H431.779V352.593C431.779 351.249 431.545 350.268 431.075 349.649C430.606 349.03 429.955 348.721 429.123 348.721C428.547 348.721 427.961 348.87 427.363 349.169C426.787 349.468 426.265 349.884 425.795 350.417C425.326 350.929 424.985 351.526 424.771 352.209V362.001H420.483V345.233H424.355V348.337C424.782 347.612 425.326 347.004 425.987 346.513C426.649 346.001 427.406 345.617 428.259 345.361C429.134 345.084 430.051 344.945 431.011 344.945C432.057 344.945 432.91 345.137 433.571 345.521C434.254 345.884 434.766 346.385 435.107 347.025C435.47 347.644 435.715 348.348 435.843 349.137C435.993 349.926 436.067 350.726 436.067 351.537V362.001Z" fill="white"/>
</g>
<defs>
<clipPath id="clip0_243_3">
<rect width="850" height="605" fill="white"/>
</clipPath>
</defs>
</svg>
