<svg width="708" height="556" viewBox="0 0 708 556" fill="none" xmlns="http://www.w3.org/2000/svg">
<g clip-path="url(#clip0_245_32)">
<path d="M644.465 507.448C630.893 521.979 615.341 534.526 598.269 544.718C597.877 544.959 597.479 545.185 597.079 545.419L569.44 520.956C569.731 520.686 570.052 520.384 570.398 520.051C590.992 500.496 693.229 363.771 700.042 330.477C699.572 333.25 706.189 442.027 644.465 507.448Z" fill="#F0F0F0"/>
<path d="M603.601 549.438C603.079 549.563 602.547 549.679 602.014 549.786L581.278 531.433C581.684 531.292 582.157 531.124 582.699 530.938C591.595 527.787 618.093 518.277 644.463 507.446C672.797 495.802 700.996 482.646 707.061 474.219C705.76 476.177 665.686 535.555 603.601 549.438Z" fill="#F0F0F0"/>
<path d="M644.082 145.58H641.129V64.6862C641.129 58.5379 639.918 52.4497 637.565 46.7694C635.212 41.089 631.763 35.9277 627.416 31.5802C623.068 27.2326 617.907 23.784 612.227 21.4311C606.546 19.0782 600.458 17.8672 594.31 17.8672H422.926C416.777 17.8672 410.689 19.0782 405.009 21.431C399.328 23.7839 394.167 27.2326 389.819 31.5801C385.472 35.9276 382.023 41.0889 379.67 46.7692C377.317 52.4496 376.106 58.5377 376.106 64.6861V508.475C376.106 514.623 377.317 520.711 379.67 526.392C382.023 532.072 385.472 537.233 389.819 541.581C394.167 545.929 399.328 549.377 405.009 551.73C410.689 554.083 416.777 555.294 422.925 555.294H594.309C600.458 555.294 606.546 554.083 612.226 551.73C617.907 549.377 623.068 545.929 627.416 541.581C631.763 537.234 635.212 532.072 637.565 526.392C639.918 520.712 641.129 514.623 641.129 508.475V203.161H644.082V145.58Z" fill="#3F3D56"/>
<path d="M631.163 65.0075V508.15C631.163 512.742 630.258 517.289 628.501 521.531C626.743 525.773 624.167 529.627 620.92 532.873C617.672 536.119 613.817 538.694 609.575 540.45C605.332 542.206 600.785 543.109 596.193 543.107H423.984C419.394 543.107 414.848 542.203 410.607 540.447C406.365 538.69 402.511 536.115 399.265 532.869C396.019 529.623 393.444 525.769 391.688 521.528C389.931 517.287 389.027 512.741 389.027 508.15V65.0075C389.027 60.4168 389.931 55.871 391.688 51.6297C393.444 47.3884 396.019 43.5347 399.265 40.2886C402.511 37.0425 406.365 34.4676 410.607 32.711C414.848 30.9544 419.394 30.0504 423.984 30.0508H444.883C443.857 32.5732 443.467 35.309 443.746 38.0176C444.026 40.7262 444.966 43.3246 446.486 45.5844C448.005 47.8441 450.057 49.6958 452.459 50.9768C454.862 52.2577 457.543 52.9286 460.266 52.9304H558.448C561.172 52.933 563.856 52.265 566.261 50.9852C568.666 49.7055 570.72 47.8534 572.24 45.5924C573.76 43.3314 574.701 40.7309 574.978 38.0205C575.256 35.3101 574.862 32.573 573.832 30.0508H596.193C600.785 30.0491 605.332 30.9521 609.575 32.7081C613.817 34.4641 617.672 37.0387 620.92 40.2849C624.167 43.5311 626.743 47.3853 628.501 51.6272C630.258 55.8692 631.163 60.4159 631.163 65.0075V65.0075Z" fill="white"/>
<path d="M476.561 187.984H480.185L481.961 193.432L483.737 187.984H487.385L484.481 195.904L486.209 200.44L490.481 187.96H494.777L488.129 205H484.721L481.961 198.328L479.225 205H475.793L469.168 187.96H473.441L477.737 200.44L479.417 195.904L476.561 187.984ZM495.945 205V192.4H499.785V205H495.945ZM495.945 190.96V187.48H499.785V190.96H495.945ZM507.238 205.24C506.166 205.24 505.118 205.064 504.094 204.712C503.07 204.36 502.206 203.84 501.502 203.152L502.822 200.728C503.59 201.288 504.334 201.712 505.054 202C505.79 202.288 506.478 202.432 507.118 202.432C507.614 202.432 507.998 202.352 508.27 202.192C508.542 202.032 508.678 201.784 508.678 201.448C508.678 201.208 508.598 201.024 508.438 200.896C508.278 200.752 508.03 200.624 507.694 200.512C507.374 200.4 506.974 200.28 506.494 200.152C505.534 199.832 504.734 199.52 504.094 199.216C503.454 198.912 502.974 198.544 502.654 198.112C502.334 197.664 502.174 197.088 502.174 196.384C502.174 195.536 502.382 194.8 502.798 194.176C503.23 193.536 503.838 193.04 504.622 192.688C505.406 192.336 506.342 192.16 507.43 192.16C508.294 192.16 509.134 192.296 509.95 192.568C510.782 192.84 511.558 193.296 512.278 193.936L510.79 196.336C510.07 195.84 509.43 195.48 508.87 195.256C508.31 195.032 507.766 194.92 507.238 194.92C506.966 194.92 506.718 194.952 506.494 195.016C506.27 195.08 506.086 195.192 505.942 195.352C505.814 195.496 505.75 195.688 505.75 195.928C505.75 196.168 505.814 196.36 505.942 196.504C506.086 196.648 506.302 196.776 506.59 196.888C506.894 196.984 507.27 197.104 507.718 197.248C508.758 197.552 509.622 197.864 510.31 198.184C510.998 198.488 511.51 198.872 511.846 199.336C512.198 199.784 512.374 200.384 512.374 201.136C512.374 202.416 511.91 203.424 510.982 204.16C510.07 204.88 508.822 205.24 507.238 205.24ZM513.551 201.232C513.551 200.4 513.783 199.672 514.247 199.048C514.711 198.424 515.351 197.936 516.167 197.584C516.983 197.216 517.919 197.032 518.975 197.032C519.487 197.032 519.991 197.08 520.487 197.176C520.983 197.256 521.415 197.376 521.783 197.536V196.984C521.783 196.296 521.575 195.768 521.159 195.4C520.743 195.032 520.111 194.848 519.263 194.848C518.559 194.848 517.895 194.968 517.271 195.208C516.663 195.448 516.015 195.792 515.327 196.24L514.175 193.792C515.007 193.248 515.871 192.84 516.767 192.568C517.679 192.296 518.639 192.16 519.647 192.16C521.535 192.16 522.999 192.616 524.039 193.528C525.095 194.424 525.623 195.728 525.623 197.44V200.728C525.623 201.112 525.679 201.384 525.791 201.544C525.919 201.688 526.135 201.776 526.439 201.808V205C526.119 205.064 525.815 205.112 525.527 205.144C525.255 205.176 525.015 205.192 524.807 205.192C524.087 205.192 523.535 205.048 523.151 204.76C522.783 204.472 522.551 204.08 522.455 203.584L522.383 203.032C521.823 203.752 521.151 204.304 520.367 204.688C519.599 205.056 518.791 205.24 517.943 205.24C517.111 205.24 516.359 205.064 515.687 204.712C515.031 204.36 514.511 203.88 514.127 203.272C513.743 202.664 513.551 201.984 513.551 201.232ZM521.183 201.712C521.359 201.568 521.503 201.408 521.615 201.232C521.727 201.056 521.783 200.888 521.783 200.728V199.6C521.463 199.472 521.103 199.376 520.703 199.312C520.319 199.232 519.959 199.192 519.623 199.192C518.919 199.192 518.335 199.352 517.871 199.672C517.407 199.976 517.175 200.384 517.175 200.896C517.175 201.184 517.255 201.448 517.415 201.688C517.575 201.928 517.791 202.12 518.063 202.264C518.351 202.408 518.687 202.48 519.071 202.48C519.455 202.48 519.839 202.408 520.223 202.264C520.607 202.12 520.927 201.936 521.183 201.712ZM536.449 204.328C536.097 204.472 535.705 204.616 535.273 204.76C534.857 204.904 534.417 205.016 533.953 205.096C533.489 205.192 533.033 205.24 532.585 205.24C531.945 205.24 531.353 205.136 530.809 204.928C530.281 204.704 529.857 204.344 529.537 203.848C529.233 203.352 529.081 202.696 529.081 201.88V195.304H527.473V192.4H529.081V188.392H532.921V192.4H535.489V195.304H532.921V200.56C532.921 200.976 533.025 201.28 533.233 201.472C533.441 201.648 533.705 201.736 534.025 201.736C534.297 201.736 534.585 201.688 534.889 201.592C535.209 201.496 535.481 201.392 535.705 201.28L536.449 204.328ZM537.153 201.232C537.153 200.4 537.385 199.672 537.849 199.048C538.313 198.424 538.953 197.936 539.769 197.584C540.585 197.216 541.521 197.032 542.577 197.032C543.089 197.032 543.593 197.08 544.089 197.176C544.585 197.256 545.017 197.376 545.385 197.536V196.984C545.385 196.296 545.177 195.768 544.761 195.4C544.345 195.032 543.713 194.848 542.865 194.848C542.161 194.848 541.497 194.968 540.873 195.208C540.265 195.448 539.617 195.792 538.929 196.24L537.777 193.792C538.609 193.248 539.473 192.84 540.369 192.568C541.281 192.296 542.241 192.16 543.249 192.16C545.137 192.16 546.601 192.616 547.641 193.528C548.697 194.424 549.225 195.728 549.225 197.44V200.728C549.225 201.112 549.281 201.384 549.393 201.544C549.521 201.688 549.737 201.776 550.041 201.808V205C549.721 205.064 549.417 205.112 549.129 205.144C548.857 205.176 548.617 205.192 548.409 205.192C547.689 205.192 547.137 205.048 546.753 204.76C546.385 204.472 546.153 204.08 546.057 203.584L545.985 203.032C545.425 203.752 544.753 204.304 543.969 204.688C543.201 205.056 542.393 205.24 541.545 205.24C540.713 205.24 539.961 205.064 539.289 204.712C538.633 204.36 538.113 203.88 537.729 203.272C537.345 202.664 537.153 201.984 537.153 201.232ZM544.785 201.712C544.961 201.568 545.105 201.408 545.217 201.232C545.329 201.056 545.385 200.888 545.385 200.728V199.6C545.065 199.472 544.705 199.376 544.305 199.312C543.921 199.232 543.561 199.192 543.225 199.192C542.521 199.192 541.937 199.352 541.473 199.672C541.009 199.976 540.777 200.384 540.777 200.896C540.777 201.184 540.857 201.448 541.017 201.688C541.177 201.928 541.393 202.12 541.665 202.264C541.953 202.408 542.289 202.48 542.673 202.48C543.057 202.48 543.441 202.408 543.825 202.264C544.209 202.12 544.529 201.936 544.785 201.712Z" fill="#003A91"/>
<path d="M490.011 213.548H485.259V226H481.651V213.548H476.877V210.38H490.011V213.548ZM490.26 221.842V214.45H493.78V221.072C493.78 221.776 493.919 222.319 494.198 222.7C494.477 223.067 494.873 223.25 495.386 223.25C495.709 223.25 496.017 223.199 496.31 223.096C496.603 222.979 496.889 222.795 497.168 222.546C497.447 222.297 497.696 221.974 497.916 221.578V214.45H501.436V222.084C501.436 222.436 501.487 222.685 501.59 222.832C501.707 222.964 501.905 223.045 502.184 223.074V226C501.861 226.059 501.575 226.103 501.326 226.132C501.091 226.161 500.879 226.176 500.688 226.176C500.072 226.176 499.581 226.051 499.214 225.802C498.847 225.538 498.62 225.171 498.532 224.702L498.466 223.998C497.938 224.761 497.278 225.325 496.486 225.692C495.709 226.044 494.836 226.22 493.868 226.22C492.695 226.22 491.8 225.846 491.184 225.098C490.568 224.35 490.26 223.265 490.26 221.842ZM511.093 226.22C510.213 226.22 509.443 226.037 508.783 225.67C508.123 225.289 507.602 224.761 507.221 224.086V226H504.163V209.94H507.683V216.342C508.064 215.667 508.57 215.147 509.201 214.78C509.846 214.413 510.602 214.23 511.467 214.23C512.2 214.23 512.868 214.391 513.469 214.714C514.085 215.022 514.613 215.455 515.053 216.012C515.508 216.555 515.86 217.193 516.109 217.926C516.358 218.645 516.483 219.429 516.483 220.28C516.483 221.116 516.344 221.893 516.065 222.612C515.801 223.331 515.427 223.961 514.943 224.504C514.459 225.047 513.887 225.472 513.227 225.78C512.582 226.073 511.87 226.22 511.093 226.22ZM510.103 223.25C510.499 223.25 510.866 223.177 511.203 223.03C511.555 222.869 511.856 222.656 512.105 222.392C512.354 222.128 512.545 221.82 512.677 221.468C512.809 221.101 512.875 220.705 512.875 220.28C512.875 219.737 512.765 219.231 512.545 218.762C512.325 218.293 512.017 217.919 511.621 217.64C511.24 217.361 510.792 217.222 510.279 217.222C509.912 217.222 509.56 217.31 509.223 217.486C508.886 217.662 508.585 217.904 508.321 218.212C508.057 218.505 507.844 218.843 507.683 219.224V221.644C507.8 221.893 507.947 222.121 508.123 222.326C508.299 222.517 508.49 222.678 508.695 222.81C508.915 222.942 509.142 223.052 509.377 223.14C509.626 223.213 509.868 223.25 510.103 223.25ZM517.509 222.546C517.509 221.783 517.722 221.116 518.147 220.544C518.573 219.972 519.159 219.525 519.907 219.202C520.655 218.865 521.513 218.696 522.481 218.696C522.951 218.696 523.413 218.74 523.867 218.828C524.322 218.901 524.718 219.011 525.055 219.158V218.652C525.055 218.021 524.865 217.537 524.483 217.2C524.102 216.863 523.523 216.694 522.745 216.694C522.1 216.694 521.491 216.804 520.919 217.024C520.362 217.244 519.768 217.559 519.137 217.97L518.081 215.726C518.844 215.227 519.636 214.853 520.457 214.604C521.293 214.355 522.173 214.23 523.097 214.23C524.828 214.23 526.17 214.648 527.123 215.484C528.091 216.305 528.575 217.501 528.575 219.07V222.084C528.575 222.436 528.627 222.685 528.729 222.832C528.847 222.964 529.045 223.045 529.323 223.074V226C529.03 226.059 528.751 226.103 528.487 226.132C528.238 226.161 528.018 226.176 527.827 226.176C527.167 226.176 526.661 226.044 526.309 225.78C525.972 225.516 525.759 225.157 525.671 224.702L525.605 224.196C525.092 224.856 524.476 225.362 523.757 225.714C523.053 226.051 522.313 226.22 521.535 226.22C520.773 226.22 520.083 226.059 519.467 225.736C518.866 225.413 518.389 224.973 518.037 224.416C517.685 223.859 517.509 223.235 517.509 222.546ZM524.505 222.986C524.667 222.854 524.799 222.707 524.901 222.546C525.004 222.385 525.055 222.231 525.055 222.084V221.05C524.762 220.933 524.432 220.845 524.065 220.786C523.713 220.713 523.383 220.676 523.075 220.676C522.43 220.676 521.895 220.823 521.469 221.116C521.044 221.395 520.831 221.769 520.831 222.238C520.831 222.502 520.905 222.744 521.051 222.964C521.198 223.184 521.396 223.36 521.645 223.492C521.909 223.624 522.217 223.69 522.569 223.69C522.921 223.69 523.273 223.624 523.625 223.492C523.977 223.36 524.271 223.191 524.505 222.986ZM542.258 226H538.738V219.51C538.738 218.747 538.591 218.197 538.298 217.86C538.019 217.508 537.645 217.332 537.176 217.332C536.853 217.332 536.523 217.42 536.186 217.596C535.849 217.772 535.541 218.014 535.262 218.322C534.998 218.63 534.793 218.982 534.646 219.378V226H531.126V214.45H534.294V216.386C534.587 215.931 534.954 215.543 535.394 215.22C535.834 214.897 536.34 214.655 536.912 214.494C537.484 214.318 538.107 214.23 538.782 214.23C539.53 214.23 540.131 214.369 540.586 214.648C541.055 214.912 541.407 215.264 541.642 215.704C541.891 216.144 542.053 216.621 542.126 217.134C542.214 217.633 542.258 218.124 542.258 218.608V226Z" fill="#E88B00"/>
<path d="M577.594 295.288H426.228C423.576 295.285 421.034 294.231 419.16 292.356C417.285 290.481 416.231 287.939 416.228 285.288V280.311C416.231 277.659 417.285 275.117 419.16 273.243C421.034 271.368 423.576 270.314 426.228 270.311H577.594C580.245 270.314 582.787 271.368 584.662 273.243C586.537 275.117 587.591 277.659 587.594 280.311V285.288C587.591 287.939 586.537 290.481 584.662 292.356C582.787 294.231 580.245 295.285 577.594 295.288Z" fill="#F0F0F0"/>
<path d="M577.594 338.196H426.228C423.576 338.193 421.034 337.139 419.16 335.264C417.285 333.389 416.231 330.848 416.228 328.196V323.219C416.231 320.568 417.285 318.026 419.16 316.151C421.034 314.276 423.576 313.222 426.228 313.219H577.594C580.245 313.222 582.787 314.276 584.662 316.151C586.537 318.026 587.591 320.568 587.594 323.219V328.196C587.591 330.848 586.537 333.389 584.662 335.264C582.787 337.139 580.245 338.193 577.594 338.196V338.196Z" fill="#F0F0F0"/>
<path d="M585.167 285.692H433.8C431.016 285.689 428.347 284.582 426.379 282.613C424.41 280.645 423.303 277.976 423.3 275.192V270.215C423.303 267.431 424.41 264.762 426.379 262.794C428.347 260.825 431.016 259.718 433.8 259.715H585.167C587.95 259.718 590.619 260.825 592.588 262.794C594.556 264.762 595.663 267.431 595.667 270.215V275.192C595.663 277.976 594.556 280.645 592.588 282.613C590.619 284.582 587.95 285.689 585.167 285.692V285.692ZM433.8 261.715C431.546 261.717 429.386 262.614 427.792 264.207C426.199 265.801 425.302 267.961 425.3 270.215V275.192C425.302 277.446 426.199 279.606 427.792 281.2C429.386 282.794 431.546 283.69 433.8 283.692H585.167C587.42 283.69 589.581 282.794 591.174 281.2C592.768 279.606 593.664 277.446 593.667 275.192V270.215C593.664 267.961 592.768 265.801 591.174 264.207C589.581 262.614 587.42 261.717 585.167 261.715H433.8Z" fill="#3F3D56"/>
<path d="M585.167 328.601H433.8C431.016 328.597 428.347 327.49 426.379 325.522C424.41 323.553 423.303 320.884 423.3 318.101V313.123C423.303 310.339 424.41 307.67 426.379 305.702C428.347 303.733 431.016 302.626 433.8 302.623H585.167C587.95 302.626 590.619 303.733 592.588 305.702C594.556 307.67 595.663 310.339 595.667 313.123V318.101C595.663 320.884 594.556 323.553 592.588 325.522C590.619 327.49 587.95 328.597 585.167 328.601V328.601ZM433.8 304.623C431.546 304.626 429.386 305.522 427.792 307.115C426.199 308.709 425.302 310.869 425.3 313.123V318.101C425.302 320.354 426.199 322.515 427.792 324.108C429.386 325.702 431.546 326.598 433.8 326.601H585.167C587.42 326.598 589.581 325.702 591.174 324.108C592.768 322.515 593.664 320.354 593.667 318.101V313.123C593.664 310.869 592.768 308.709 591.174 307.115C589.581 305.522 587.42 304.626 585.167 304.623H433.8Z" fill="#3F3D56"/>
<path d="M631.163 65.0075V161.397C615.847 165.427 599.811 165.889 584.288 162.749C568.765 159.608 554.17 152.949 541.625 143.283C529.08 133.617 518.919 121.202 511.925 106.993C504.931 92.7837 501.289 77.1597 501.28 61.3226C501.28 58.4958 501.394 55.6984 501.621 52.9304H558.448C561.172 52.933 563.855 52.265 566.261 50.9852C568.666 49.7055 570.72 47.8534 572.24 45.5924C573.76 43.3314 574.701 40.7309 574.978 38.0205C575.256 35.3101 574.862 32.573 573.832 30.0508H596.193C600.785 30.0491 605.332 30.9521 609.575 32.7081C613.817 34.4641 617.672 37.0387 620.92 40.2849C624.167 43.5311 626.743 47.3853 628.501 51.6272C630.258 55.8692 631.163 60.4159 631.163 65.0075V65.0075Z" fill="#F0F0F0"/>
<path d="M476.041 537.088C476.041 539.12 475.965 541.126 475.801 543.108H423.984C419.394 543.108 414.848 542.204 410.607 540.447C406.365 538.691 402.511 536.116 399.265 532.87C396.019 529.624 393.444 525.77 391.688 521.529C389.931 517.287 389.027 512.742 389.027 508.151V460.751C399.889 459.338 410.927 460.257 421.405 463.446C431.884 466.634 441.562 472.02 449.796 479.243C458.03 486.467 464.629 495.362 469.155 505.336C473.68 515.311 476.028 526.135 476.041 537.088H476.041Z" fill="#003A91"/>
<path d="M58.1209 453.919C59.5769 454.559 61.2274 454.596 62.7105 454.021C64.1935 453.446 65.388 452.307 66.0319 450.852L112.711 345.058C113.78 342.637 114.106 339.954 113.649 337.347C113.192 334.741 111.973 332.328 110.145 330.415C108.317 328.501 105.963 327.173 103.38 326.597C100.797 326.022 98.1011 326.226 95.6338 327.182H95.6337C92.7832 328.271 90.3978 330.314 88.8836 332.963C88.6427 333.382 88.4242 333.813 88.2291 334.256L41.5498 440.05C41.2317 440.77 41.0587 441.547 41.0406 442.335C41.0226 443.122 41.1599 443.906 41.4448 444.641C41.7296 445.375 42.1564 446.047 42.7007 446.617C43.2451 447.186 43.8963 447.643 44.6172 447.961L58.1209 453.919Z" fill="#E88B00"/>
<path d="M110.795 388.49L64.623 378.229L76.051 347.997C77.9979 340.608 82.5286 334.161 88.8213 329.826C95.1141 325.491 102.752 323.555 110.35 324.369L110.795 324.419L110.795 388.49Z" fill="#2F2E41"/>
<path d="M204.055 455.432C202.697 455.429 201.369 455.034 200.231 454.292C199.093 453.551 198.194 452.496 197.643 451.255L150.964 345.461C149.479 342.095 149.341 338.288 150.578 334.823C151.815 331.358 154.333 328.499 157.614 326.834C160.894 325.169 164.688 324.825 168.215 325.872C171.742 326.919 174.733 329.278 176.573 332.464C176.832 332.914 177.067 333.377 177.276 333.851L223.955 439.645C224.705 441.344 224.749 443.271 224.077 445.002C223.406 446.733 222.075 448.126 220.377 448.875L206.415 455.035L206.408 455.02C205.653 455.292 204.857 455.431 204.055 455.432Z" fill="#E88B00"/>
<path d="M139.485 419.104C137.895 419.105 136.369 419.738 135.245 420.863C134.12 421.988 133.487 423.513 133.485 425.104V548.118C133.487 549.708 134.12 551.234 135.245 552.358C136.369 553.483 137.895 554.116 139.485 554.118H154.245C155.836 554.116 157.361 553.483 158.486 552.358C159.61 551.234 160.243 549.708 160.245 548.118V425.104C160.243 423.513 159.61 421.988 158.486 420.863C157.361 419.738 155.836 419.105 154.245 419.104H139.485Z" fill="#E88B00"/>
<path d="M110.293 419.104C108.702 419.105 107.177 419.738 106.052 420.863C104.927 421.988 104.295 423.513 104.293 425.104V548.118C104.295 549.708 104.927 551.234 106.052 552.358C107.177 553.483 108.702 554.116 110.293 554.118H125.053C126.643 554.116 128.169 553.483 129.293 552.358C130.418 551.234 131.051 549.708 131.053 548.118V425.104C131.051 423.513 130.418 421.988 129.293 420.863C128.169 419.738 126.643 419.105 125.053 419.104H110.293Z" fill="#E88B00"/>
<path d="M131.828 290.225C159.995 290.225 182.828 267.391 182.828 239.225C182.828 211.058 159.995 188.225 131.828 188.225C103.662 188.225 80.8281 211.058 80.8281 239.225C80.8281 267.391 103.662 290.225 131.828 290.225Z" fill="#E88B00"/>
<path d="M148.8 260.632C152.106 260.541 156.22 260.426 159.39 258.11C160.334 257.393 161.109 256.477 161.662 255.428C162.215 254.379 162.531 253.222 162.59 252.038C162.647 251.196 162.509 250.352 162.186 249.573C161.864 248.793 161.365 248.099 160.729 247.544C159.074 246.145 156.656 245.817 154.051 246.583L156.75 226.857L154.769 226.586L151.596 249.776L153.25 249.017C155.169 248.137 157.802 247.689 159.438 249.072C159.84 249.433 160.153 249.883 160.353 250.385C160.553 250.887 160.635 251.429 160.591 251.967C160.543 252.849 160.305 253.709 159.894 254.491C159.483 255.272 158.909 255.956 158.21 256.495C155.743 258.297 152.464 258.529 148.744 258.633L148.8 260.632Z" fill="#2F2E41"/>
<path d="M177.321 228.559H166.55V230.559H177.321V228.559Z" fill="#2F2E41"/>
<path d="M143.321 228.559H132.55V230.559H143.321V228.559Z" fill="#2F2E41"/>
<path d="M182.361 456.053L164.005 322.053C163.808 320.616 163.098 319.299 162.005 318.346C160.912 317.392 159.511 316.867 158.06 316.867H144.205C144.263 316.537 144.293 316.202 144.295 315.867V310.867C144.295 309.276 143.663 307.75 142.537 306.625C141.412 305.499 139.886 304.867 138.295 304.867H126.295C124.704 304.867 123.177 305.499 122.052 306.625C120.927 307.75 120.295 309.276 120.295 310.867V315.867C120.297 316.202 120.327 316.537 120.385 316.867H106.529C105.079 316.867 103.678 317.392 102.585 318.346C101.492 319.299 100.781 320.616 100.584 322.053L82.2284 456.053C82.1121 456.902 82.179 457.765 82.4244 458.586C82.6699 459.407 83.0882 460.166 83.6514 460.811C84.2146 461.457 84.9095 461.974 85.6894 462.329C86.4692 462.684 87.316 462.867 88.1727 462.867H176.417C177.274 462.867 178.12 462.684 178.9 462.329C179.68 461.974 180.375 461.457 180.938 460.811C181.501 460.166 181.92 459.407 182.165 458.586C182.411 457.766 182.478 456.902 182.361 456.053V456.053Z" fill="#2F2E41"/>
<path d="M153.795 388.491V324.42L154.24 324.371C161.847 323.557 169.493 325.5 175.79 329.845C182.087 334.19 186.616 340.65 188.555 348.051L199.967 378.231L153.795 388.491Z" fill="#2F2E41"/>
<path d="M129.259 291.815L93.984 278.123C88.2157 275.884 82.4152 273.713 76.6775 271.397C74.2197 270.541 71.9557 269.206 70.0159 267.471C68.3271 265.683 67.1761 263.456 66.6948 261.044C65.4714 255.873 65.6926 250.219 65.7798 244.941C65.8475 239.168 66.3226 233.407 67.2016 227.701C68.742 216.978 72.3597 206.658 77.8518 197.32C87.7446 181.089 104.789 168.877 124.395 169.851C133.471 170.303 142.6 173.56 149.344 179.765C150.048 180.606 150.837 181.371 151.699 182.048C152.299 182.273 152.951 182.316 153.575 182.174C154.398 182.121 155.221 182.08 156.046 182.052C158.906 181.932 161.771 182.052 164.611 182.412C169.787 182.971 174.692 185.008 178.742 188.279C182.112 191.178 184.854 195.271 185.136 199.819C185.272 201.907 184.927 203.998 184.127 205.931C183.327 207.865 182.094 209.588 180.522 210.97C176.313 214.516 170.309 213.27 165.26 213.002L146.767 212.023L137.396 211.526C135.467 211.424 135.473 214.424 137.396 214.526L162.301 215.846C166.304 216.058 170.428 216.577 174.434 216.337C177.512 216.198 180.45 215.016 182.767 212.985C184.883 211.041 186.459 208.582 187.342 205.848C188.224 203.114 188.384 200.198 187.804 197.384C186.52 191.246 181.952 186.169 176.597 183.149C169.311 179.039 160.609 178.645 152.456 179.253L153.517 179.692C144.295 169.794 130.168 165.615 116.907 167.077C102.904 168.621 90.4505 176.433 81.5026 187.115C71.5261 199.024 66.0896 213.874 63.976 229.145C62.8762 237.389 62.5141 245.715 62.894 254.024C62.8784 257.689 63.5053 261.327 64.7463 264.775C66.1623 268.131 68.7224 270.876 71.9714 272.521C75.6964 274.32 79.5259 275.893 83.4393 277.232L96.4355 282.277L121.964 292.185L128.462 294.707C130.263 295.406 131.043 292.507 129.259 291.815Z" fill="#2F2E41"/>
<path d="M73.7949 189.867C70.7293 189.867 67.7325 188.958 65.1836 187.255C62.6346 185.552 60.648 183.131 59.4748 180.299C58.3016 177.467 57.9947 174.35 58.5928 171.343C59.1908 168.337 60.667 165.575 62.8348 163.407C65.0025 161.239 67.7643 159.763 70.771 159.165C73.7777 158.567 76.8943 158.874 79.7265 160.047C82.5588 161.22 84.9795 163.207 86.6827 165.756C88.3859 168.305 89.2949 171.302 89.2949 174.367C89.2903 178.477 87.6558 182.416 84.75 185.322C81.8442 188.228 77.9044 189.863 73.7949 189.867ZM73.7949 161.867C71.3227 161.867 68.9059 162.6 66.8503 163.974C64.7947 165.347 63.1925 167.3 62.2464 169.584C61.3003 171.868 61.0528 174.381 61.5351 176.806C62.0174 179.231 63.2079 181.458 64.9561 183.206C66.7043 184.954 68.9315 186.145 71.3563 186.627C73.7811 187.109 76.2944 186.862 78.5785 185.916C80.8625 184.97 82.8148 183.367 84.1883 181.312C85.5618 179.256 86.2949 176.839 86.2949 174.367C86.2912 171.053 84.973 167.876 82.6297 165.532C80.2863 163.189 77.109 161.871 73.7949 161.867V161.867Z" fill="#2F2E41"/>
<path d="M332.9 285.923L299.351 260.264L273.691 293.813L307.24 319.472L332.9 285.923Z" fill="#F0F0F0"/>
<path d="M143.295 56.8674C148.596 56.8633 153.824 58.1004 158.56 60.4798C163.297 62.8592 167.411 66.3147 170.572 70.5696L190.162 44.9559L131.383 0L86.4277 58.779L111.761 78.1548C114.296 71.8673 118.653 66.4811 124.272 62.688C129.891 58.8948 136.516 56.8679 143.295 56.8674V56.8674Z" fill="#F0F0F0"/>
<path d="M707 555.867H1C0.734784 555.867 0.480429 555.762 0.292892 555.574C0.105356 555.387 0 555.132 0 554.867C0 554.602 0.105356 554.348 0.292892 554.16C0.480429 553.973 0.734784 553.867 1 553.867H707C707.265 553.867 707.52 553.973 707.707 554.16C707.895 554.348 708 554.602 708 554.867C708 555.132 707.895 555.387 707.707 555.574C707.52 555.762 707.265 555.867 707 555.867Z" fill="#3F3D56"/>
<path d="M534.687 389.937H462.825C460.174 389.934 457.632 388.879 455.757 387.004C453.883 385.13 452.828 382.588 452.825 379.937V374.959C452.828 372.308 453.883 369.766 455.757 367.891C457.632 366.017 460.174 364.962 462.825 364.959H534.687C537.339 364.962 539.88 366.017 541.755 367.891C543.63 369.766 544.684 372.308 544.687 374.959V379.937C544.684 382.588 543.63 385.13 541.755 387.004C539.88 388.879 537.339 389.934 534.687 389.937V389.937Z" fill="#003A91"/>
<path d="M542.26 380.341H470.397C467.614 380.338 464.945 379.23 462.976 377.262C461.008 375.294 459.901 372.625 459.897 369.841V364.863C459.901 362.079 461.008 359.411 462.976 357.442C464.945 355.474 467.614 354.366 470.397 354.363H542.26C545.044 354.366 547.712 355.474 549.681 357.442C551.649 359.411 552.757 362.079 552.76 364.863V369.841C552.757 372.625 551.649 375.294 549.681 377.262C547.712 379.23 545.044 380.338 542.26 380.341V380.341ZM470.397 356.363C468.144 356.366 465.983 357.262 464.39 358.856C462.796 360.449 461.9 362.61 461.897 364.863V369.841C461.9 372.094 462.796 374.255 464.39 375.848C465.983 377.442 468.144 378.338 470.397 378.341H542.26C544.513 378.338 546.674 377.442 548.267 375.848C549.861 374.255 550.757 372.094 550.76 369.841V364.863C550.757 362.61 549.861 360.449 548.267 358.856C546.674 357.262 544.513 356.366 542.26 356.363H470.397Z" fill="#3F3D56"/>
</g>
<defs>
<clipPath id="clip0_245_32">
<rect width="708" height="555.867" fill="white"/>
</clipPath>
</defs>
</svg>
