<svg width="94" height="44" viewBox="0 0 94 44" fill="none" xmlns="http://www.w3.org/2000/svg">
<path d="M13.5605 4.984H17.1845L18.9605 10.432L20.7365 4.984H24.3845L21.4805 12.904L23.2085 17.44L27.4805 4.96H31.7765L25.1285 22H21.7205L18.9605 15.328L16.2245 22H12.7925L6.1685 4.96H10.4405L14.7365 17.44L16.4165 12.904L13.5605 4.984ZM32.945 22V9.4H36.785V22H32.945ZM32.945 7.96V4.48H36.785V7.96H32.945ZM44.2378 22.24C43.1658 22.24 42.1178 22.064 41.0938 21.712C40.0698 21.36 39.2058 20.84 38.5018 20.152L39.8218 17.728C40.5898 18.288 41.3338 18.712 42.0538 19C42.7898 19.288 43.4778 19.432 44.1178 19.432C44.6138 19.432 44.9978 19.352 45.2698 19.192C45.5418 19.032 45.6778 18.784 45.6778 18.448C45.6778 18.208 45.5978 18.024 45.4378 17.896C45.2778 17.752 45.0298 17.624 44.6938 17.512C44.3738 17.4 43.9738 17.28 43.4938 17.152C42.5338 16.832 41.7338 16.52 41.0938 16.216C40.4538 15.912 39.9738 15.544 39.6538 15.112C39.3338 14.664 39.1738 14.088 39.1738 13.384C39.1738 12.536 39.3818 11.8 39.7978 11.176C40.2298 10.536 40.8378 10.04 41.6217 9.688C42.4058 9.336 43.3418 9.16 44.4297 9.16C45.2938 9.16 46.1338 9.296 46.9498 9.568C47.7818 9.84 48.5578 10.296 49.2778 10.936L47.7898 13.336C47.0698 12.84 46.4298 12.48 45.8698 12.256C45.3098 12.032 44.7658 11.92 44.2378 11.92C43.9658 11.92 43.7178 11.952 43.4938 12.016C43.2698 12.08 43.0858 12.192 42.9418 12.352C42.8138 12.496 42.7498 12.688 42.7498 12.928C42.7498 13.168 42.8138 13.36 42.9418 13.504C43.0858 13.648 43.3018 13.776 43.5898 13.888C43.8938 13.984 44.2698 14.104 44.7178 14.248C45.7578 14.552 46.6218 14.864 47.3098 15.184C47.9978 15.488 48.5098 15.872 48.8458 16.336C49.1978 16.784 49.3738 17.384 49.3738 18.136C49.3738 19.416 48.9098 20.424 47.9818 21.16C47.0698 21.88 45.8218 22.24 44.2378 22.24ZM50.5514 18.232C50.5514 17.4 50.7834 16.672 51.2474 16.048C51.7114 15.424 52.3514 14.936 53.1674 14.584C53.9834 14.216 54.9194 14.032 55.9754 14.032C56.4874 14.032 56.9914 14.08 57.4874 14.176C57.9834 14.256 58.4154 14.376 58.7834 14.536V13.984C58.7834 13.296 58.5754 12.768 58.1594 12.4C57.7434 12.032 57.1114 11.848 56.2634 11.848C55.5594 11.848 54.8954 11.968 54.2714 12.208C53.6634 12.448 53.0154 12.792 52.3274 13.24L51.1754 10.792C52.0074 10.248 52.8714 9.84 53.7674 9.568C54.6794 9.296 55.6394 9.16 56.6474 9.16C58.5354 9.16 59.9994 9.616 61.0394 10.528C62.0954 11.424 62.6234 12.728 62.6234 14.44V17.728C62.6234 18.112 62.6794 18.384 62.7914 18.544C62.9194 18.688 63.1354 18.776 63.4394 18.808V22C63.1194 22.064 62.8154 22.112 62.5274 22.144C62.2554 22.176 62.0154 22.192 61.8074 22.192C61.0874 22.192 60.5354 22.048 60.1514 21.76C59.7834 21.472 59.5514 21.08 59.4554 20.584L59.3834 20.032C58.8234 20.752 58.1514 21.304 57.3674 21.688C56.5994 22.056 55.7914 22.24 54.9434 22.24C54.1114 22.24 53.3594 22.064 52.6874 21.712C52.0314 21.36 51.5114 20.88 51.1274 20.272C50.7434 19.664 50.5514 18.984 50.5514 18.232ZM58.1834 18.712C58.3594 18.568 58.5034 18.408 58.6154 18.232C58.7274 18.056 58.7834 17.888 58.7834 17.728V16.6C58.4634 16.472 58.1034 16.376 57.7034 16.312C57.3194 16.232 56.9594 16.192 56.6234 16.192C55.9194 16.192 55.3354 16.352 54.8714 16.672C54.4074 16.976 54.1754 17.384 54.1754 17.896C54.1754 18.184 54.2554 18.448 54.4154 18.688C54.5754 18.928 54.7914 19.12 55.0634 19.264C55.3514 19.408 55.6874 19.48 56.0714 19.48C56.4554 19.48 56.8394 19.408 57.2234 19.264C57.6074 19.12 57.9274 18.936 58.1834 18.712ZM73.4488 21.328C73.0968 21.472 72.7048 21.616 72.2728 21.76C71.8568 21.904 71.4168 22.016 70.9528 22.096C70.4888 22.192 70.0328 22.24 69.5848 22.24C68.9448 22.24 68.3528 22.136 67.8088 21.928C67.2808 21.704 66.8568 21.344 66.5368 20.848C66.2328 20.352 66.0808 19.696 66.0808 18.88V12.304H64.4728V9.4H66.0808V5.392H69.9208V9.4H72.4888V12.304H69.9208V17.56C69.9208 17.976 70.0248 18.28 70.2328 18.472C70.4408 18.648 70.7048 18.736 71.0247 18.736C71.2968 18.736 71.5848 18.688 71.8888 18.592C72.2088 18.496 72.4808 18.392 72.7048 18.28L73.4488 21.328ZM74.153 18.232C74.153 17.4 74.385 16.672 74.849 16.048C75.313 15.424 75.953 14.936 76.769 14.584C77.585 14.216 78.521 14.032 79.577 14.032C80.089 14.032 80.593 14.08 81.089 14.176C81.585 14.256 82.017 14.376 82.385 14.536V13.984C82.385 13.296 82.177 12.768 81.761 12.4C81.345 12.032 80.713 11.848 79.865 11.848C79.161 11.848 78.497 11.968 77.873 12.208C77.265 12.448 76.617 12.792 75.929 13.24L74.777 10.792C75.609 10.248 76.473 9.84 77.369 9.568C78.281 9.296 79.241 9.16 80.249 9.16C82.137 9.16 83.601 9.616 84.641 10.528C85.697 11.424 86.225 12.728 86.225 14.44V17.728C86.225 18.112 86.281 18.384 86.393 18.544C86.521 18.688 86.737 18.776 87.041 18.808V22C86.721 22.064 86.417 22.112 86.129 22.144C85.857 22.176 85.617 22.192 85.409 22.192C84.689 22.192 84.137 22.048 83.753 21.76C83.385 21.472 83.153 21.08 83.057 20.584L82.985 20.032C82.425 20.752 81.753 21.304 80.969 21.688C80.201 22.056 79.393 22.24 78.545 22.24C77.713 22.24 76.961 22.064 76.289 21.712C75.633 21.36 75.113 20.88 74.729 20.272C74.345 19.664 74.153 18.984 74.153 18.232ZM81.785 18.712C81.961 18.568 82.105 18.408 82.217 18.232C82.329 18.056 82.385 17.888 82.385 17.728V16.6C82.065 16.472 81.705 16.376 81.305 16.312C80.921 16.232 80.561 16.192 80.225 16.192C79.521 16.192 78.937 16.352 78.473 16.672C78.009 16.976 77.777 17.384 77.777 17.896C77.777 18.184 77.857 18.448 78.017 18.688C78.177 18.928 78.393 19.12 78.665 19.264C78.953 19.408 79.289 19.48 79.673 19.48C80.057 19.48 80.441 19.408 80.825 19.264C81.209 19.12 81.529 18.936 81.785 18.712Z" fill="#003A91"/>
<path d="M27.0113 30.548H22.2593V43H18.6513V30.548H13.8773V27.38H27.0113V30.548ZM27.2602 38.842V31.45H30.7802V38.072C30.7802 38.776 30.9195 39.3187 31.1982 39.7C31.4768 40.0667 31.8728 40.25 32.3862 40.25C32.7088 40.25 33.0168 40.1987 33.3102 40.096C33.6035 39.9787 33.8895 39.7953 34.1682 39.546C34.4468 39.2967 34.6962 38.974 34.9162 38.578V31.45H38.4362V39.084C38.4362 39.436 38.4875 39.6853 38.5902 39.832C38.7075 39.964 38.9055 40.0447 39.1842 40.074V43C38.8615 43.0587 38.5755 43.1027 38.3262 43.132C38.0915 43.1613 37.8788 43.176 37.6882 43.176C37.0722 43.176 36.5808 43.0513 36.2142 42.802C35.8475 42.538 35.6202 42.1713 35.5322 41.702L35.4662 40.998C34.9382 41.7607 34.2782 42.3253 33.4862 42.692C32.7088 43.044 31.8362 43.22 30.8682 43.22C29.6948 43.22 28.8002 42.846 28.1842 42.098C27.5682 41.35 27.2602 40.2647 27.2602 38.842ZM48.0931 43.22C47.2131 43.22 46.4431 43.0367 45.7831 42.67C45.1231 42.2887 44.6025 41.7607 44.2211 41.086V43H41.1631V26.94H44.6831V33.342C45.0645 32.6673 45.5705 32.1467 46.2011 31.78C46.8465 31.4133 47.6018 31.23 48.4671 31.23C49.2005 31.23 49.8678 31.3913 50.4691 31.714C51.0851 32.022 51.6131 32.4547 52.0531 33.012C52.5078 33.5547 52.8598 34.1927 53.1091 34.926C53.3585 35.6447 53.4831 36.4293 53.4831 37.28C53.4831 38.116 53.3438 38.8933 53.0651 39.612C52.8011 40.3307 52.4271 40.9613 51.9431 41.504C51.4591 42.0467 50.8871 42.472 50.2271 42.78C49.5818 43.0733 48.8705 43.22 48.0931 43.22ZM47.1031 40.25C47.4991 40.25 47.8658 40.1767 48.2031 40.03C48.5551 39.8687 48.8558 39.656 49.1051 39.392C49.3545 39.128 49.5451 38.82 49.6771 38.468C49.8091 38.1013 49.8751 37.7053 49.8751 37.28C49.8751 36.7373 49.7651 36.2313 49.5451 35.762C49.3251 35.2927 49.0171 34.9187 48.6211 34.64C48.2398 34.3613 47.7925 34.222 47.2791 34.222C46.9125 34.222 46.5605 34.31 46.2231 34.486C45.8858 34.662 45.5851 34.904 45.3211 35.212C45.0571 35.5053 44.8445 35.8427 44.6831 36.224V38.644C44.8005 38.8933 44.9471 39.1207 45.1231 39.326C45.2991 39.5167 45.4898 39.678 45.6951 39.81C45.9151 39.942 46.1425 40.052 46.3771 40.14C46.6265 40.2133 46.8685 40.25 47.1031 40.25ZM54.5094 39.546C54.5094 38.7833 54.7221 38.116 55.1474 37.544C55.5727 36.972 56.1594 36.5247 56.9074 36.202C57.6554 35.8647 58.5134 35.696 59.4814 35.696C59.9507 35.696 60.4127 35.74 60.8674 35.828C61.3221 35.9013 61.7181 36.0113 62.0554 36.158V35.652C62.0554 35.0213 61.8647 34.5373 61.4834 34.2C61.1021 33.8627 60.5227 33.694 59.7454 33.694C59.1001 33.694 58.4914 33.804 57.9194 34.024C57.3621 34.244 56.7681 34.5593 56.1374 34.97L55.0814 32.726C55.8441 32.2273 56.6361 31.8533 57.4574 31.604C58.2934 31.3547 59.1734 31.23 60.0974 31.23C61.8281 31.23 63.1701 31.648 64.1234 32.484C65.0914 33.3053 65.5754 34.5007 65.5754 36.07V39.084C65.5754 39.436 65.6267 39.6853 65.7294 39.832C65.8467 39.964 66.0447 40.0447 66.3234 40.074V43C66.0301 43.0587 65.7514 43.1027 65.4874 43.132C65.2381 43.1613 65.0181 43.176 64.8274 43.176C64.1674 43.176 63.6614 43.044 63.3094 42.78C62.9721 42.516 62.7594 42.1567 62.6714 41.702L62.6054 41.196C62.0921 41.856 61.4761 42.362 60.7574 42.714C60.0534 43.0513 59.3127 43.22 58.5354 43.22C57.7727 43.22 57.0834 43.0587 56.4674 42.736C55.8661 42.4133 55.3894 41.9733 55.0374 41.416C54.6854 40.8587 54.5094 40.2353 54.5094 39.546ZM61.5054 39.986C61.6667 39.854 61.7987 39.7073 61.9014 39.546C62.0041 39.3847 62.0554 39.2307 62.0554 39.084V38.05C61.7621 37.9327 61.4321 37.8447 61.0654 37.786C60.7134 37.7127 60.3834 37.676 60.0754 37.676C59.4301 37.676 58.8947 37.8227 58.4694 38.116C58.0441 38.3947 57.8314 38.7687 57.8314 39.238C57.8314 39.502 57.9047 39.744 58.0514 39.964C58.1981 40.184 58.3961 40.36 58.6454 40.492C58.9094 40.624 59.2174 40.69 59.5694 40.69C59.9214 40.69 60.2734 40.624 60.6254 40.492C60.9774 40.36 61.2707 40.1913 61.5054 39.986ZM79.258 43H75.738V36.51C75.738 35.7473 75.5913 35.1973 75.298 34.86C75.0193 34.508 74.6453 34.332 74.176 34.332C73.8533 34.332 73.5233 34.42 73.186 34.596C72.8487 34.772 72.5407 35.014 72.262 35.322C71.998 35.63 71.7927 35.982 71.646 36.378V43H68.126V31.45H71.294V33.386C71.5873 32.9313 71.954 32.5427 72.394 32.22C72.834 31.8973 73.34 31.6553 73.912 31.494C74.484 31.318 75.1073 31.23 75.782 31.23C76.53 31.23 77.1313 31.3693 77.586 31.648C78.0553 31.912 78.4073 32.264 78.642 32.704C78.8913 33.144 79.0527 33.6207 79.126 34.134C79.214 34.6327 79.258 35.124 79.258 35.608V43Z" fill="#E88B00"/>
</svg>
